<svg version="1.1" baseProfile="full" width="118" height="94" xmlns="http://www.w3.org/2000/svg">
	<rect x="0" y="0" width="10" height="10" stroke="#eefdee" fill-opacity="0"></rect>
	<rect x="36" y="0" width="10" height="10" stroke="#eefbee" fill-opacity="0"></rect>
	<rect x="72" y="12" width="10" height="10" stroke="#eeffee" fill-opacity="0"></rect>
	<rect x="0" y="24" width="10" height="10" stroke="#eefbee" fill-opacity="0"></rect>
	<rect x="0" y="36" width="10" height="10" stroke="#eefaee" fill-opacity="0"></rect>
	<rect x="36" y="36" width="10" height="10" stroke="#eefbee" fill-opacity="0"></rect>
	<rect x="48" y="36" width="10" height="10" stroke="#eef8ee" fill-opacity="0"></rect>
	<rect x="72" y="36" width="10" height="10" stroke="#eefeee" fill-opacity="0"></rect>
	<rect x="96" y="36" width="10" height="10" stroke="#eefaee" fill-opacity="0"></rect>
	<rect x="0" y="48" width="10" height="10" stroke="#eefaee" fill-opacity="0"></rect>
	<rect x="12" y="48" width="10" height="10" stroke="#eefbee" fill-opacity="0"></rect>
	<rect x="24" y="48" width="10" height="10" stroke="#eefeee" fill-opacity="0"></rect>
	<rect x="36" y="48" width="10" height="10" stroke="#eefeee" fill-opacity="0"></rect>
	<rect x="48" y="48" width="10" height="10" stroke="#eef9ee" fill-opacity="0"></rect>
	<rect x="60" y="48" width="10" height="10" stroke="#eeffee" fill-opacity="0"></rect>
	<rect x="108" y="48" width="10" height="10" stroke="#eefbee" fill-opacity="0"></rect>
	<rect x="0" y="60" width="10" height="10" stroke="#eefbee" fill-opacity="0"></rect>
	<rect x="12" y="60" width="10" height="10" stroke="#eefdee" fill-opacity="0"></rect>
	<rect x="36" y="60" width="10" height="10" stroke="#eeeefb" fill-opacity="0"></rect>
	<rect x="60" y="60" width="10" height="10" stroke="#eeffee" fill-opacity="0"></rect>
	<rect x="84" y="60" width="10" height="10" stroke="#eef9ee" fill-opacity="0"></rect>
	<rect x="0" y="72" width="10" height="10" stroke="#eef8ee" fill-opacity="0"></rect>
	<rect x="12" y="72" width="10" height="10" stroke="#eefaee" fill-opacity="0"></rect>
	<rect x="24" y="72" width="10" height="10" stroke="#eefcee" fill-opacity="0"></rect>
	<rect x="48" y="72" width="10" height="10" stroke="#eef9ee" fill-opacity="0"></rect>
	<rect x="60" y="72" width="10" height="10" stroke="#eeffee" fill-opacity="0"></rect>
	<rect x="0" y="84" width="10" height="10" stroke="#eef8ee" fill-opacity="0"></rect>
	<rect x="12" y="84" width="10" height="10" stroke="#eefaee" fill-opacity="0"></rect>
	<rect x="24" y="84" width="10" height="10" stroke="#eefcee" fill-opacity="0"></rect>
	<rect x="36" y="84" width="10" height="10" stroke="#eef9ee" fill-opacity="0"></rect>
	<rect x="48" y="84" width="10" height="10" stroke="#eefeee" fill-opacity="0"></rect>
	<rect x="60" y="84" width="10" height="10" stroke="#eef8ee" fill-opacity="0"></rect>
	<rect x="72" y="84" width="10" height="10" stroke="#eeffee" fill-opacity="0"></rect>
</svg>
